Patient4_TMGait_0pt2_02_left_01_EMG.mot
version=1
nRows=39
nColumns=33
inDegrees=no
endheader
time	1LAddLong	2LGlutMax	3LGlutMed	4LIliopsoas	5LSemiMemb	6LBicFemLong	7LRecFem	8LVastMed	9LVastLat	10LGasMed	11LTibAnt	12lTibPost	13LPeroneusLong	14LSol	15LExtDigLong	16LFlexDigLong	17RAddLong	18RGlutMax	19RGlutMed	20RIliopsoas	21RSemiMemb	22RBicFemLong	23RRecFem	24RVastMed	25RVastLat	26RGasMed	27RTibAnt	28RTibPost	29RPeroneusLong	30RSol	31RExtDigLong	32RFlexDigLong
2.662	-0.004272	0.18341	0.019684	0.009155	-0.009003	0.022736	0.093994	-0.002594	-0.1593	0.024567	-0.029755	-0.001984	0.59387	0.034485	0.11551	0.005188	0.098724	0.000305	0.095673	0.005188	0.18448	-0.065155	0.074158	-0.17853	-0.01236	-0.020142	-0.061188	0.054932	-0.23834	-0.66803	0.002136	-0.011292
2.663	0.002899	0.15671	0.067902	0.007324	-0.044708	0.026245	-0.008392	0.006714	-0.11337	-0.062561	-0.03952	0.001068	0.30853	0.086517	0.14328	0.004578	0.10941	0.036621	-0.10315	-0.067139	0.038452	-0.073853	0.023804	-0.2182	-0.018768	-0.032349	-0.038757	0.16235	-0.65323	-0.3862	-0.000153	-0.009918
2.664	0.008087	0.15427	0.009308	-0.007019	-0.027924	0.006409	-0.065918	0.014648	-0.020599	-0.048828	0.003967	0.000153	-0.52628	0.097198	0.079651	0.012054	0.092621	-0.048981	0.007477	-0.079193	-0.30182	0.044861	0.009155	-0.13138	-0.021362	0.003815	-0.022278	0.13168	-0.39291	-0.18784	-0.003204	-0.011749
2.665	0.007019	0.1622	0.015411	-0.016174	-0.034943	0.001068	-0.12039	0.007324	-0.023804	-0.015259	-0.003815	-0.00351	-0.59296	-0.007935	-0.026398	-0.004425	0.023651	0.012054	-0.001678	-0.029297	-0.34988	0.27405	-0.007477	0.002441	0.011597	0.020142	-0.019836	0.030823	-0.033569	-0.20691	-0.000763	-0.02182
2.666	0.00473	0.10422	0.062256	0.001984	0.016022	-0.005341	0.029602	0.003815	0.0737	-0.030975	-0.026093	-0.005341	-0.27481	0.010071	-0.052795	-0.003052	-0.042725	0.013428	0.14801	-0.033112	-0.18036	0.50827	-0.012665	0.14496	0.006256	-0.001678	-0.020447	0.012207	0.57083	-0.21057	-0.002289	-0.014191
2.667	0.005035	-0.024719	0.014191	0.013733	0.014648	0.02243	0.10498	0.006409	0.2034	0.000305	-0.018463	0.003967	0.075684	-0.034637	-0.04425	-0.000305	-0.042725	-0.011292	0.31387	-0.028839	-0.14328	0.46051	-0.03006	0.15701	0.019989	-0.018005	0.028229	0.15991	-0.30655	0.75867	-0.006714	-0.021057
2.668	0.006714	-0.08667	-0.090485	0.00946	0.005188	0.073547	0.063629	0.01709	0.22156	0.009613	-0.034485	-0.003662	0.032043	-0.10101	-0.074768	0.005646	-0.019531	0.031586	0.32547	0.011292	0.099487	0.19379	0.047302	0.033112	-0.007172	-0.015869	0.036316	-0.3096	-0.15488	1.0379	-0.003662	-0.010071
2.669	-0.003052	-0.10468	0.054016	-0.006714	0.001526	0.059204	0.026855	0.024567	0.18784	0	-0.006866	-0.001526	-0.11398	-0.087433	-0.001373	0.005341	0.019531	-0.0383	0.34714	0.039063	0.18494	0.018463	0.012665	0.020294	-0.015259	-0.000153	-0.00885	0.042877	0.18265	-0.17303	-0.007935	-0.018463
2.67	0.012054	-0.098114	-0.006409	0.003204	0.009308	0.021057	-0.046082	0.016327	0.049591	0.014954	0.001831	0.001373	-0.233	-0.18692	-0.057983	-0.004578	0.02594	-0.022583	0.13626	0.045624	0.2066	0.000916	0.021667	-0.013885	-0.006104	0.001678	-0.012817	0.16251	0.21301	-0.32532	-0.006409	-0.009918
2.671	0.003357	-0.054321	-0.073547	0.001068	-0.000458	0.027008	-0.10254	-0.005951	-0.10178	0.003662	-0.01709	0.002441	-0.19211	-0.10254	0.016022	0	-0.014343	0.02243	-0.20477	0.084076	0.2652	-0.01297	-0.005035	0.021057	-0.00351	-0.001068	-0.012054	0.088806	0.12512	0.16281	-0.001373	-0.003967
2.672	0.012207	-0.028229	-0.067139	0.014648	0.012512	0.050354	-0.10819	0.006561	-0.17014	0	-0.023651	-0.012665	-0.075684	-0.056152	0.06012	0.005341	-0.009613	0.059509	-0.17166	0.01709	0.25207	-0.066376	0.021973	-0.082855	-0.017548	-0.002289	-0.014954	0.026398	0.073547	0.27847	-0.007172	-0.009918
2.673	-0.006561	-0.032196	-0.00824	0.001221	-0.005188	0.062866	-0.034943	0.011292	-0.10193	-0.016174	-0.018768	-0.005646	-0.026398	-0.091553	-0.030518	-0.005798	-0.006409	0.040741	-0.12405	-0.002747	0.051727	0.083923	0.018158	-0.10376	-0.031586	-0.032349	-0.016022	-0.008087	0.078278	0.084991	-0.004578	-0.003052
2.674	-0.007629	-0.003815	0.027466	0.002899	0.005035	0.040436	-0.000153	0.01358	0.02594	-0.020905	-0.009155	-0.005188	-0.014038	-0.036316	-0.054321	-0.001373	-0.054016	0.072327	-0.17548	-0.035553	-0.40268	0.28778	0.015106	-0.016022	-0.028534	-0.028992	-0.031281	-0.010071	0.070801	-0.12222	-0.003357	-0.005341
2.675	-0.004425	-0.072479	0.054474	0.008392	-0.016022	-0.015259	0.016479	0.010376	0.099335	-0.011902	0.047607	0.000763	-0.033722	-0.038757	0.14435	-0.007324	-0.032349	0.1091	-0.26871	-0.030823	-0.036163	0.30136	-0.000153	-0.028534	0.009308	-0.017242	-0.047607	-0.002899	-0.19547	0.070343	-0.004425	-0.003815
2.676	-0.005951	-0.033112	0.015411	0.005646	-0.002747	-0.097351	-0.000458	0.001526	0.096436	-0.006714	0.068359	-0.003052	-0.02594	0.028381	0.005341	0.005035	-0.033722	0.08667	-0.25909	0.050201	0.15915	0.033569	-0.046539	0.011444	0.027618	-0.007629	-0.015259	-0.000305	-0.099487	0.37598	-0.005188	-0.005951
2.677	-0.007935	-0.00824	-0.001678	0.01236	0.00061	-0.10971	-0.007477	-0.008392	0.075378	0.002136	0.18112	-0.013733	-0.10971	0.047302	0.49011	0.003357	-0.031128	0.10849	0.36362	0.11078	0.069885	-0.11108	-0.061646	0.053711	0.029755	-0.012512	0.010529	-0.006561	0.009308	0.22308	0.001526	-0.008698
2.678	-0.002747	-0.007629	-0.015259	0.008392	-0.00885	-0.067902	-0.036011	-0.006561	0.093689	0.003815	0.25299	0.003052	-0.098419	0.029144	0.61706	-0.004272	-0.041656	0.074158	1.1449	0.014954	0.05249	-0.083618	-0.019226	0.024261	0.029602	-0.00946	0.012054	0.002899	0.027313	0.11871	-0.001068	-0.01358
2.679	-0.00473	0.019989	-0.032654	0.003204	0.008698	-0.027924	-0.058289	0.003662	0.15121	-0.004425	0.22385	0.003357	-0.045166	0.037994	-0.075226	-0.001373	-0.068054	0.033722	0.61844	-0.024872	-0.10757	0.1033	-0.000153	0.09552	0.026245	-0.005493	-0.001678	0.000916	0.049133	-0.032196	0.002289	-0.009308
2.68	-0.009766	-0.0354	-0.051575	0.000153	0.002289	-0.003052	-0.029144	-0.00473	0.039215	0.003815	0.15305	-0.016327	-0.030212	0.029144	0.12268	-0.015411	-0.082703	-0.032043	-0.17425	0.005035	-0.020142	0.15427	-0.008392	0.15228	0.027466	-0.002136	0.015564	0.004272	0.081024	-0.17029	-0.004883	-0.01297
2.681	-0.001068	-0.005341	-0.033417	0.004578	-0.006256	-0.01236	0.016785	0.00473	-0.13001	-0.019684	-0.072937	-0.005188	0.026093	0.032501	-0.21484	0.001373	-0.018921	-0.072784	-0.23224	0.003967	-0.10849	0.11154	0.053253	0.04837	-0.005798	-0.006561	0.02182	-0.001678	0.09903	-0.2272	-0.002747	-0.014038
2.682	-0.009003	0.025635	-0.027313	0.009308	0.001984	-0.021667	0.013733	0.010681	-0.20126	-0.018311	-0.22201	-0.004272	0.11414	0.004578	0.088654	0.00351	0.026093	-0.024109	0.04303	-0.040588	-0.12802	0.078583	0.088806	-0.070953	-0.021057	-0.002441	0.027008	-0.002289	0.028076	-0.24078	-0.001221	-0.009918
2.683	0.001678	0.047607	-0.021973	0.00885	0.000153	0.03479	0.039215	0.016632	-0.11246	-0.017853	0.002594	-0.002136	0.091095	0.016327	0.1445	-0.00824	0.054626	-0.044098	-0.084991	-0.002136	-0.20783	0.085754	0.056915	-0.1384	-0.01297	0.002289	0.019379	0.007477	-0.071259	-0.15823	-0.005646	-0.014191
2.684	-0.003052	0.072479	-0.023956	0.002441	0.009003	0.075226	0.046997	0.013123	-0.079346	-0.014954	0.11993	-0.006256	0.047302	0.030823	-0.19852	0.003815	0.026855	-0.025787	-0.38803	0.046234	-0.20859	0.1207	0.027771	-0.11932	-0.006714	0.002747	0.009155	0.002441	0.035858	-0.13519	0.007324	-0.01236
2.685	-0.00061	-0.019836	-0.029449	-0.000458	0.007172	0.081635	0.027466	0.02594	-0.094452	0.006866	0.10849	-0.007172	0.001068	-0.006561	-0.71808	-0.014954	0.008545	0.067596	-0.19302	0.009613	0.21179	0.002899	0.002594	-0.006866	-0.004425	0.004425	0.037994	0.000458	0.025787	-0.18601	-0.00351	-0.0177
2.686	-0.002899	-0.005341	-0.071716	0.007324	-0.006409	0.093536	-0.040436	0.031128	-0.11551	0.013123	0.028992	-0.001984	-0.024719	-0.071869	-0.47928	0.000916	0.014954	0.079041	0.31143	0.024872	-0.20676	-0.09491	-0.001068	0.1004	-0.001678	0.010223	0.049286	-0.007477	-0.10147	-0.21454	0.001526	-0.019379
2.687	-0.006409	-0.042267	-0.1709	0.004578	-0.014038	-0.010681	-0.003662	0.013733	-0.11871	0.01297	-0.11185	-0.000458	-0.002899	-0.097504	-0.32272	0.010223	0.036774	0.044098	0.7544	-0.045013	0.18112	-0.12665	0.040741	0.044708	0.004883	0.016937	0.030518	-0.005798	-0.015106	-0.20355	-0.002289	-0.017548
2.688	0.002136	-0.081787	-0.22919	0.009918	-0.010986	-0.15976	-0.023499	0.006866	-0.087585	0.012817	-0.31525	-0.000916	0.03006	-0.094604	-0.011139	0.004272	-0.016022	0.037079	0.34576	-0.035858	0.37552	-0.14496	0.005035	0.046997	0.012817	0.02182	0.007172	0.003204	0.20096	-0.16373	-0.006104	-0.005035
2.689	-0.007477	-0.046539	-0.031281	-0.005188	-0.005646	-0.15823	-0.061951	0.002441	0.005646	0.009918	-0.22339	0.003357	0.036316	-0.036469	0.11093	-0.000763	-0.028687	0.058899	-0.21927	0.002441	0.19226	-0.075226	-0.00473	0.048676	0.014038	0.027771	-0.001068	0.000916	0.24582	-0.22171	-0.002899	-0.009918
2.69	-0.003357	-0.063171	0.044708	-0.007019	-0.018005	-0.13626	-0.061646	0.001831	0.10346	0.00885	-0.088959	0.000763	0.027161	-0.009308	0.028992	0.008392	0.015717	0.054779	-0.27054	-0.031128	0.12238	-0.1416	0.036774	-0.016632	-0.005341	0.023804	-0.036926	-0.017242	0.23086	-0.071259	-0.010376	-0.001831
2.691	-0.014191	-0.055389	0.050507	0.005341	-0.011292	-0.082703	-0.012817	0.007477	0.19379	0.006409	-0.077667	-0.000916	0.11383	0.046387	-0.030365	-0.001526	0.087585	0.074463	-0.018616	-0.056458	0.07431	-0.25421	0.030518	-0.09079	0.001221	0.006104	-0.066528	-0.006409	0.23575	-0.13168	-0.00946	0.000305
2.692	-0.012207	-0.063477	0.10269	0.00946	-0.008392	-0.010223	0.005951	0.01236	0.24841	-0.017548	-0.068207	-0.002594	0.03067	0.005646	0.098267	0.003357	0.070953	0.063629	-0.041504	-0.002136	-0.17731	-0.15396	0.026703	-0.1593	0.004425	0.001373	-0.018921	-0.030823	-0.072937	-0.34546	-0.000916	-0.006714
2.693	-0.007477	-0.024872	0.031738	0.009918	0.02182	-0.048523	-0.062714	0.009918	0.23941	0.00824	-0.049896	-0.001984	-0.029144	-0.049438	0.064087	-0.002594	0.033417	0.075226	-0.056458	0.048523	-0.3833	0.068054	0.049286	-0.14526	-0.00061	0.024719	-0.004883	-0.039825	-0.1651	-0.29572	-0.00412	-0.010071
2.694	0.017395	-0.024261	0.045013	0.004578	0.023346	-0.0383	-0.14221	0.000916	0.065765	0.009003	-0.044708	-0.001068	0.16174	-0.021515	0.11841	-0.005646	-0.005035	0.10086	0.011749	0.078278	-0.41107	0.16022	0.040894	-0.068207	-0.019379	-0.007629	-0.003662	-0.3273	-0.22446	-0.1799	0.001526	-0.009918
2.695	0.018158	-0.087433	-0.005341	-0.00061	0.020142	0.027618	-0.055695	-0.014343	-0.11154	-0.006256	-0.051575	0.001373	0.39124	0.008392	0.0354	0.008087	-0.026398	0.051575	-0.052032	0.034637	0.000916	0.017242	-0.007324	0.025177	-0.000458	-0.016937	0.019836	0.037079	-0.33112	-0.28549	-0.002136	-0.003815
2.696	0.01236	-0.083771	-0.034637	-0.005798	0.015259	-0.13153	-0.033722	-0.016174	-0.20325	0.019226	-0.049896	0.002136	-0.16174	-0.032196	0.050354	0.006409	-0.043488	0.072784	-0.21103	-0.028992	0.3566	0.031433	-0.010681	0.11047	0.022736	-0.001068	0.017853	-0.76187	-0.18066	-0.13672	-0.001373	-0.02121
2.697	0.001831	-0.11093	-0.062714	0.00473	-0.003815	-0.09201	0.001221	-0.000458	-0.088806	0.018921	-0.037842	-0.003357	-0.26428	-0.086823	0.095978	-0.002136	-0.027771	0.086365	-0.11551	-0.065765	0	0.11337	0.01358	0.12131	0.020447	-0.037231	-0.000458	0.51239	-0.038605	-0.042267	0.00824	-0.022888
2.698	-0.000916	-0.10544	-0.033722	0.011749	-0.015564	-0.021515	0.045013	0.002747	-0.010834	0.026245	-0.015717	0.005646	-0.077362	-0.10635	0.12695	0.000916	0.023041	0.098114	0.24628	-0.060883	-0.058289	0.067444	0.046234	0.072784	-0.005341	-0.032043	-0.021362	0.48721	0.068054	-0.22064	-0.00412	-0.01358
2.699	0.004883	-0.09964	0.094147	-0.000916	-0.016479	0.063324	0.024414	0.00824	0.024719	0.019684	-0.013428	-0.004425	0.06485	-0.10605	0.1355	0.001526	0.091248	0.084381	0.27588	0.032043	0.14679	-0.10437	0.075073	-0.07431	-0.028381	-0.044403	-0.024719	0.25726	-0.11032	0.09552	0.000305	-0.02182
2.7	0.004425	-0.15808	0.033722	-0.000458	-0.021057	0.1471	0.026245	-0.000153	-0.002747	-0.007629	0.00351	-0.001068	0.17807	-0.018616	0.11704	-0.004578	0.1294	0.013428	0.15427	0.14008	0.19852	-0.17105	0.048523	-0.12909	-0.030518	-0.053406	-0.002441	0.13504	-0.25299	0.22934	-0.00473	-0.020447
